<mxfile host="app.diagrams.net" modified="2024-01-30T15:28:39.733Z" agent="Mozilla/5.0 (Windows NT 10.0; Win64; x64) AppleWebKit/537.36 (KHTML, like Gecko) Chrome/121.0.0.0 Safari/537.36" etag="J46Ca3PPFZ-shfyzzsC3" version="23.0.2" type="google">
  <diagram name="P치gina-1" id="KGQeLPtl38gJl8NxieY2">
    <mxGraphModel grid="1" page="1" gridSize="10" guides="1" tooltips="1" connect="1" arrows="1" fold="1" pageScale="1" pageWidth="827" pageHeight="1169" math="0" shadow="0">
      <root>
        <mxCell id="0" />
        <mxCell id="1" parent="0" />
        <mxCell id="zyJBCe2Gsbd-mujYciZS-1" value="" style="rounded=0;whiteSpace=wrap;html=1;" vertex="1" parent="1">
          <mxGeometry x="30" y="10" width="780" height="130" as="geometry" />
        </mxCell>
        <mxCell id="zyJBCe2Gsbd-mujYciZS-2" value="&lt;font style=&quot;vertical-align: inherit;&quot;&gt;&lt;font style=&quot;vertical-align: inherit; font-size: 14px;&quot;&gt;Nombre empresa&lt;/font&gt;&lt;/font&gt;" style="text;html=1;strokeColor=none;fillColor=none;align=center;verticalAlign=middle;whiteSpace=wrap;rounded=0;" vertex="1" parent="1">
          <mxGeometry x="352" y="40" width="116" height="30" as="geometry" />
        </mxCell>
        <mxCell id="zyJBCe2Gsbd-mujYciZS-3" value="" style="rounded=1;whiteSpace=wrap;html=1;" vertex="1" parent="1">
          <mxGeometry x="610" y="80" width="130" height="40" as="geometry" />
        </mxCell>
        <mxCell id="zyJBCe2Gsbd-mujYciZS-4" value="&lt;font style=&quot;vertical-align: inherit;&quot;&gt;&lt;font style=&quot;vertical-align: inherit;&quot;&gt;Login/registro empresas&lt;/font&gt;&lt;/font&gt;" style="text;html=1;strokeColor=none;fillColor=none;align=center;verticalAlign=middle;whiteSpace=wrap;rounded=0;" vertex="1" parent="1">
          <mxGeometry x="640" y="85" width="60" height="30" as="geometry" />
        </mxCell>
        <mxCell id="zyJBCe2Gsbd-mujYciZS-5" value="" style="rounded=0;whiteSpace=wrap;html=1;" vertex="1" parent="1">
          <mxGeometry x="40" y="200" width="760" height="160" as="geometry" />
        </mxCell>
        <mxCell id="zyJBCe2Gsbd-mujYciZS-6" value="" style="rounded=0;whiteSpace=wrap;html=1;" vertex="1" parent="1">
          <mxGeometry x="70" y="220" width="110" height="120" as="geometry" />
        </mxCell>
        <mxCell id="zyJBCe2Gsbd-mujYciZS-7" value="&lt;font style=&quot;font-size: 18px;&quot;&gt;Descripci칩n del producto...&lt;/font&gt;" style="text;html=1;strokeColor=none;fillColor=none;align=center;verticalAlign=middle;whiteSpace=wrap;rounded=0;" vertex="1" parent="1">
          <mxGeometry x="210" y="280" width="360" height="40" as="geometry" />
        </mxCell>
        <mxCell id="zyJBCe2Gsbd-mujYciZS-8" value="&lt;font style=&quot;font-size: 14px;&quot;&gt;Precio/descuento&lt;/font&gt;" style="text;html=1;strokeColor=none;fillColor=none;align=center;verticalAlign=middle;whiteSpace=wrap;rounded=0;" vertex="1" parent="1">
          <mxGeometry x="250" y="220" width="170" height="30" as="geometry" />
        </mxCell>
        <mxCell id="zyJBCe2Gsbd-mujYciZS-9" value="&lt;font style=&quot;font-size: 18px;&quot;&gt;Foto del producto&lt;/font&gt;" style="text;html=1;strokeColor=none;fillColor=none;align=center;verticalAlign=middle;whiteSpace=wrap;rounded=0;" vertex="1" parent="1">
          <mxGeometry x="95" y="265" width="60" height="30" as="geometry" />
        </mxCell>
        <mxCell id="zyJBCe2Gsbd-mujYciZS-10" value="" style="rounded=0;whiteSpace=wrap;html=1;" vertex="1" parent="1">
          <mxGeometry x="40" y="400" width="760" height="160" as="geometry" />
        </mxCell>
        <mxCell id="zyJBCe2Gsbd-mujYciZS-11" value="" style="rounded=0;whiteSpace=wrap;html=1;" vertex="1" parent="1">
          <mxGeometry x="70" y="420" width="110" height="120" as="geometry" />
        </mxCell>
        <mxCell id="zyJBCe2Gsbd-mujYciZS-12" value="&lt;font style=&quot;font-size: 18px;&quot;&gt;Descripci칩n del producto...&lt;/font&gt;" style="text;html=1;strokeColor=none;fillColor=none;align=center;verticalAlign=middle;whiteSpace=wrap;rounded=0;" vertex="1" parent="1">
          <mxGeometry x="210" y="480" width="360" height="40" as="geometry" />
        </mxCell>
        <mxCell id="zyJBCe2Gsbd-mujYciZS-13" value="&lt;font style=&quot;font-size: 14px;&quot;&gt;Precio/descuento&lt;/font&gt;" style="text;html=1;strokeColor=none;fillColor=none;align=center;verticalAlign=middle;whiteSpace=wrap;rounded=0;" vertex="1" parent="1">
          <mxGeometry x="250" y="420" width="170" height="30" as="geometry" />
        </mxCell>
        <mxCell id="zyJBCe2Gsbd-mujYciZS-14" value="&lt;font style=&quot;font-size: 18px;&quot;&gt;Foto del producto&lt;/font&gt;" style="text;html=1;strokeColor=none;fillColor=none;align=center;verticalAlign=middle;whiteSpace=wrap;rounded=0;" vertex="1" parent="1">
          <mxGeometry x="95" y="465" width="60" height="30" as="geometry" />
        </mxCell>
        <mxCell id="zyJBCe2Gsbd-mujYciZS-15" value="" style="rounded=0;whiteSpace=wrap;html=1;" vertex="1" parent="1">
          <mxGeometry x="30" y="600" width="800" height="170" as="geometry" />
        </mxCell>
        <mxCell id="zyJBCe2Gsbd-mujYciZS-16" value="&lt;font style=&quot;vertical-align: inherit;&quot;&gt;&lt;font style=&quot;vertical-align: inherit;&quot;&gt;&lt;font style=&quot;vertical-align: inherit;&quot;&gt;&lt;font style=&quot;vertical-align: inherit;&quot;&gt;Pie de p치gina&lt;/font&gt;&lt;/font&gt;&lt;/font&gt;&lt;/font&gt;" style="text;html=1;strokeColor=none;fillColor=none;align=center;verticalAlign=middle;whiteSpace=wrap;rounded=0;" vertex="1" parent="1">
          <mxGeometry x="366" y="660" width="96" height="70" as="geometry" />
        </mxCell>
        <mxCell id="zyJBCe2Gsbd-mujYciZS-17" value="LINK" style="rounded=1;whiteSpace=wrap;html=1;" vertex="1" parent="1">
          <mxGeometry x="650" y="480" width="120" height="60" as="geometry" />
        </mxCell>
        <mxCell id="zyJBCe2Gsbd-mujYciZS-18" value="" style="rounded=1;whiteSpace=wrap;html=1;" vertex="1" parent="1">
          <mxGeometry x="650" y="270" width="120" height="60" as="geometry" />
        </mxCell>
        <mxCell id="zyJBCe2Gsbd-mujYciZS-19" value="LINK" style="text;html=1;strokeColor=none;fillColor=none;align=center;verticalAlign=middle;whiteSpace=wrap;rounded=0;" vertex="1" parent="1">
          <mxGeometry x="680" y="290" width="60" height="30" as="geometry" />
        </mxCell>
      </root>
    </mxGraphModel>
  </diagram>
</mxfile>
